<mxfile host="65bd71144e">
    <diagram id="X0kEl8SqHb-KdKvjbe-w" name="Page-1">
        <mxGraphModel dx="811" dy="223" grid="1" gridSize="10" guides="1" tooltips="1" connect="1" arrows="1" fold="1" page="1" pageScale="1" pageWidth="850" pageHeight="1100" math="0" shadow="0">
            <root>
                <mxCell id="0"/>
                <mxCell id="1" parent="0"/>
                <mxCell id="-PmkHcy7vL9NaoO70eza-3" value="Database" style="rounded=0;whiteSpace=wrap;html=1;" parent="1" vertex="1">
                    <mxGeometry x="330" y="160" width="110" height="40" as="geometry"/>
                </mxCell>
                <mxCell id="-PmkHcy7vL9NaoO70eza-4" value="Publisher" style="rounded=0;whiteSpace=wrap;html=1;" parent="1" vertex="1">
                    <mxGeometry x="520" y="160" width="110" height="40" as="geometry"/>
                </mxCell>
                <mxCell id="-PmkHcy7vL9NaoO70eza-5" value="Crawler" style="rounded=0;whiteSpace=wrap;html=1;" parent="1" vertex="1">
                    <mxGeometry x="130" y="160" width="110" height="40" as="geometry"/>
                </mxCell>
                <mxCell id="-PmkHcy7vL9NaoO70eza-6" value="Forum" style="rounded=0;whiteSpace=wrap;html=1;" parent="1" vertex="1">
                    <mxGeometry x="160" y="200" width="80" height="20" as="geometry"/>
                </mxCell>
                <mxCell id="-PmkHcy7vL9NaoO70eza-7" value="Facebook" style="rounded=0;whiteSpace=wrap;html=1;" parent="1" vertex="1">
                    <mxGeometry x="160" y="220" width="80" height="20" as="geometry"/>
                </mxCell>
                <mxCell id="-PmkHcy7vL9NaoO70eza-8" value="...." style="rounded=0;whiteSpace=wrap;html=1;" parent="1" vertex="1">
                    <mxGeometry x="160" y="240" width="80" height="20" as="geometry"/>
                </mxCell>
                <mxCell id="-PmkHcy7vL9NaoO70eza-34" style="edgeStyle=orthogonalEdgeStyle;rounded=0;orthogonalLoop=1;jettySize=auto;html=1;exitX=1;exitY=0.5;exitDx=0;exitDy=0;entryX=0;entryY=0.5;entryDx=0;entryDy=0;" parent="1" source="-PmkHcy7vL9NaoO70eza-9" target="-PmkHcy7vL9NaoO70eza-33" edge="1">
                    <mxGeometry relative="1" as="geometry"/>
                </mxCell>
                <mxCell id="-PmkHcy7vL9NaoO70eza-9" value="Forum" style="rounded=0;whiteSpace=wrap;html=1;" parent="1" vertex="1">
                    <mxGeometry x="160" y="320" width="80" height="20" as="geometry"/>
                </mxCell>
                <mxCell id="-PmkHcy7vL9NaoO70eza-37" style="edgeStyle=orthogonalEdgeStyle;rounded=0;orthogonalLoop=1;jettySize=auto;html=1;exitX=0.75;exitY=1;exitDx=0;exitDy=0;entryX=0.75;entryY=0;entryDx=0;entryDy=0;" parent="1" source="-PmkHcy7vL9NaoO70eza-12" target="-PmkHcy7vL9NaoO70eza-33" edge="1">
                    <mxGeometry relative="1" as="geometry"/>
                </mxCell>
                <mxCell id="-PmkHcy7vL9NaoO70eza-12" value="Crawl database" style="rounded=0;whiteSpace=wrap;html=1;" parent="1" vertex="1">
                    <mxGeometry x="330" y="230" width="110" height="30" as="geometry"/>
                </mxCell>
                <mxCell id="-PmkHcy7vL9NaoO70eza-17" value="Forum" style="rounded=0;whiteSpace=wrap;html=1;" parent="1" vertex="1">
                    <mxGeometry x="550" y="200" width="80" height="20" as="geometry"/>
                </mxCell>
                <mxCell id="-PmkHcy7vL9NaoO70eza-18" value="Facebook" style="rounded=0;whiteSpace=wrap;html=1;" parent="1" vertex="1">
                    <mxGeometry x="550" y="220" width="80" height="20" as="geometry"/>
                </mxCell>
                <mxCell id="-PmkHcy7vL9NaoO70eza-19" value="...." style="rounded=0;whiteSpace=wrap;html=1;" parent="1" vertex="1">
                    <mxGeometry x="550" y="240" width="80" height="20" as="geometry"/>
                </mxCell>
                <mxCell id="-PmkHcy7vL9NaoO70eza-20" value="Instagram" style="rounded=0;whiteSpace=wrap;html=1;" parent="1" vertex="1">
                    <mxGeometry x="550" y="320" width="80" height="20" as="geometry"/>
                </mxCell>
                <mxCell id="-PmkHcy7vL9NaoO70eza-39" style="edgeStyle=orthogonalEdgeStyle;rounded=0;orthogonalLoop=1;jettySize=auto;html=1;exitX=1;exitY=0.25;exitDx=0;exitDy=0;entryX=0;entryY=0.5;entryDx=0;entryDy=0;" parent="1" source="-PmkHcy7vL9NaoO70eza-22" target="-PmkHcy7vL9NaoO70eza-33" edge="1">
                    <mxGeometry relative="1" as="geometry"/>
                </mxCell>
                <mxCell id="-PmkHcy7vL9NaoO70eza-22" value="Facebook" style="rounded=0;whiteSpace=wrap;html=1;" parent="1" vertex="1">
                    <mxGeometry x="160" y="350" width="80" height="20" as="geometry"/>
                </mxCell>
                <mxCell id="-PmkHcy7vL9NaoO70eza-24" value="Management database" style="rounded=0;whiteSpace=wrap;html=1;" parent="1" vertex="1">
                    <mxGeometry x="330" y="200" width="110" height="30" as="geometry"/>
                </mxCell>
                <mxCell id="-PmkHcy7vL9NaoO70eza-35" style="edgeStyle=orthogonalEdgeStyle;rounded=0;orthogonalLoop=1;jettySize=auto;html=1;exitX=1;exitY=0.5;exitDx=0;exitDy=0;" parent="1" source="-PmkHcy7vL9NaoO70eza-33" target="-PmkHcy7vL9NaoO70eza-20" edge="1">
                    <mxGeometry relative="1" as="geometry"/>
                </mxCell>
                <mxCell id="-PmkHcy7vL9NaoO70eza-38" style="edgeStyle=orthogonalEdgeStyle;rounded=0;orthogonalLoop=1;jettySize=auto;html=1;exitX=0.25;exitY=0;exitDx=0;exitDy=0;entryX=0.25;entryY=1;entryDx=0;entryDy=0;" parent="1" source="-PmkHcy7vL9NaoO70eza-33" target="-PmkHcy7vL9NaoO70eza-12" edge="1">
                    <mxGeometry relative="1" as="geometry"/>
                </mxCell>
                <mxCell id="-PmkHcy7vL9NaoO70eza-41" style="edgeStyle=orthogonalEdgeStyle;rounded=0;orthogonalLoop=1;jettySize=auto;html=1;exitX=1;exitY=0.5;exitDx=0;exitDy=0;entryX=0;entryY=0.5;entryDx=0;entryDy=0;" parent="1" source="-PmkHcy7vL9NaoO70eza-33" target="-PmkHcy7vL9NaoO70eza-40" edge="1">
                    <mxGeometry relative="1" as="geometry"/>
                </mxCell>
                <mxCell id="8" style="edgeStyle=orthogonalEdgeStyle;rounded=0;orthogonalLoop=1;jettySize=auto;html=1;exitX=1;exitY=0.5;exitDx=0;exitDy=0;entryX=0;entryY=0.75;entryDx=0;entryDy=0;" edge="1" parent="1" source="-PmkHcy7vL9NaoO70eza-33" target="7">
                    <mxGeometry relative="1" as="geometry"/>
                </mxCell>
                <mxCell id="-PmkHcy7vL9NaoO70eza-33" value="DAL" style="rounded=0;whiteSpace=wrap;html=1;" parent="1" vertex="1">
                    <mxGeometry x="330" y="310" width="110" height="40" as="geometry"/>
                </mxCell>
                <mxCell id="-PmkHcy7vL9NaoO70eza-40" value="Facebook" style="rounded=0;whiteSpace=wrap;html=1;" parent="1" vertex="1">
                    <mxGeometry x="550" y="350" width="80" height="20" as="geometry"/>
                </mxCell>
                <mxCell id="3" value="Analysis" style="rounded=0;whiteSpace=wrap;html=1;" vertex="1" parent="1">
                    <mxGeometry x="520" y="470" width="110" height="40" as="geometry"/>
                </mxCell>
                <mxCell id="4" value="..." style="rounded=0;whiteSpace=wrap;html=1;" vertex="1" parent="1">
                    <mxGeometry x="550" y="510" width="80" height="20" as="geometry"/>
                </mxCell>
                <mxCell id="5" value="..." style="rounded=0;whiteSpace=wrap;html=1;" vertex="1" parent="1">
                    <mxGeometry x="550" y="530" width="80" height="20" as="geometry"/>
                </mxCell>
                <mxCell id="6" value="...." style="rounded=0;whiteSpace=wrap;html=1;" vertex="1" parent="1">
                    <mxGeometry x="550" y="550" width="80" height="20" as="geometry"/>
                </mxCell>
                <mxCell id="7" value="...." style="rounded=0;whiteSpace=wrap;html=1;" vertex="1" parent="1">
                    <mxGeometry x="550" y="590" width="80" height="20" as="geometry"/>
                </mxCell>
            </root>
        </mxGraphModel>
    </diagram>
</mxfile>